<svg width="428" height="926" viewBox="0 0 428 926" fill="none" xmlns="http://www.w3.org/2000/svg">
<path d="M206.23 27.6653C204.904 29.4071 205.72 31.771 207.659 31.771C208.782 31.771 209.7 31.0245 209.7 30.0292C209.7 28.163 207.251 26.5456 206.23 27.6653Z" fill="#30C0EE" fill-opacity="0.1"/>
<path d="M223.987 29.4076C223.987 32.3936 226.334 32.0203 226.845 28.91C227.049 27.6658 226.539 26.7949 225.62 26.7949C224.6 26.7949 223.987 27.9147 223.987 29.4076Z" fill="#30C0EE" fill-opacity="0.1"/>
<path d="M237.254 29.4076C237.254 32.3936 239.601 32.0203 240.111 28.91C240.315 27.6658 239.805 26.7949 238.887 26.7949C237.866 26.7949 237.254 27.9147 237.254 29.4076Z" fill="#30C0EE" fill-opacity="0.1"/>
<path d="M263.175 28.1635C262.052 30.403 263.991 31.2739 273.074 32.7668C302.056 37.619 344.713 55.659 371.655 74.3211C411.659 102.065 451.458 145.735 473.501 186.045C494.218 223.991 506.158 262.933 509.729 303.616C510.342 310.459 511.26 319.292 511.873 323.398C512.485 327.628 512.587 335.342 512.179 341.687C511.77 349.276 511.873 352.76 512.587 352.76C513.199 352.76 513.914 352.387 514.22 351.764C514.424 351.267 514.322 339.074 513.811 324.767C512.383 282.093 507.178 256.214 492.483 219.015C471.971 167.383 439.008 123.216 392.677 85.394C359.919 58.645 320.425 39.2364 281.136 30.5274C263.889 26.795 263.889 26.795 263.175 28.1635Z" fill="#30C0EE" fill-opacity="0.1"/>
<path d="M192.352 32.3936C192.352 33.3889 193.066 34.2598 193.882 34.2598C194.699 34.2598 195.413 33.3889 195.413 32.3936C195.413 31.3982 194.699 30.5273 193.882 30.5273C193.066 30.5273 192.352 31.3982 192.352 32.3936Z" fill="#30C0EE" fill-opacity="0.1"/>
<path d="M175.717 33.8865C174.391 35.3795 175.003 37.9922 176.534 37.9922C177.35 37.9922 178.064 36.8725 178.064 35.5039C178.064 33.0156 176.942 32.2691 175.717 33.8865Z" fill="#30C0EE" fill-opacity="0.1"/>
<path d="M165.512 36.2504C164.083 38.1166 164.9 40.4805 166.941 40.4805C168.37 40.4805 168.88 39.8584 168.676 38.3654C168.37 36.126 166.635 35.0063 165.512 36.2504Z" fill="#30C0EE" fill-opacity="0.1"/>
<path d="M153.572 42.8443C153.572 44.7105 154.185 45.457 155.715 45.457C157.144 45.457 157.654 44.835 157.45 43.342C156.94 40.1072 153.572 39.734 153.572 42.8443Z" fill="#30C0EE" fill-opacity="0.1"/>
<path d="M143.673 46.2034C142.857 48.8161 145 51.4288 146.531 49.5626C147.857 47.9452 147.041 44.2128 145.408 44.2128C144.796 44.2128 144.082 45.0837 143.673 46.2034Z" fill="#30C0EE" fill-opacity="0.1"/>
<path d="M132.142 52.7975C132.142 54.2904 132.754 55.4102 133.774 55.4102C134.693 55.4102 135.203 54.5393 134.999 53.2951C134.489 50.1848 132.142 49.8115 132.142 52.7975Z" fill="#30C0EE" fill-opacity="0.1"/>
<path d="M290.524 53.1708C291.035 54.9126 292.259 55.4102 308.383 61.6309C322.058 66.8563 350.02 83.7766 364.817 95.8448C393.085 118.861 418.598 149.467 427.681 171.489C430.742 178.829 452.887 244.893 459.214 265.794C471.358 305.482 475.848 342.433 474.726 392.821C474.318 408.124 474.42 418.699 475.032 418.699C476.869 418.699 477.583 406.258 477.583 375.154C477.481 323.771 473.399 298.391 456.663 247.008C439.825 195.5 433.906 177.834 431.252 171.364C420.639 145.984 394.208 114.134 363.797 90.1217C349.918 79.2977 321.548 62.6262 306.75 56.6544C293.586 51.429 289.912 50.6825 290.524 53.1708Z" fill="#30C0EE" fill-opacity="0.1"/>
<path d="M119.181 58.769C118.467 59.0179 117.854 60.262 117.854 61.2573C117.854 62.5015 118.467 62.8747 119.487 62.3771C120.406 62.0038 121.528 61.6306 122.039 61.6306C122.549 61.6306 122.957 60.7597 122.957 59.7644C122.957 57.8981 121.528 57.5249 119.181 58.769Z" fill="#30C0EE" fill-opacity="0.1"/>
<path d="M160.716 61.0085C122.549 77.5556 60.706 129.063 29.4784 170.493C11.6196 194.132 0.291916 214.784 -10.1173 242.902C-21.3428 272.761 -28.3844 301.128 -32.7725 333.6C-35.1197 350.52 -35.5279 405.635 -33.3848 422.431C-31.5479 436.863 -26.0372 464.608 -24.8126 465.479C-22.5675 467.22 -22.6695 463.986 -25.3228 451.295C-29.711 429.772 -31.2418 415.837 -31.8541 390.706C-33.1807 336.586 -24.4044 287.318 -4.60652 237.676C6.92522 208.688 20.9062 185.547 41.2143 161.411C72.9521 123.838 120.304 85.1448 156.532 67.1048C162.451 64.1188 167.961 61.6306 168.676 61.6306C171.941 61.6306 168.676 66.856 155.307 83.2786C147.245 93.1074 136.53 106.917 131.631 113.884C126.427 121.101 119.997 128.69 116.426 131.676C97.9545 146.854 69.1762 178.953 55.3993 199.73C43.9697 216.899 33.7646 236.308 25.2944 257.209C18.0488 275.125 14.477 286.944 15.8036 288.562C17.2323 290.304 18.1508 288.686 20.9062 279.355C25.2944 263.928 35.7035 240.165 46.725 220.258C60.1957 195.749 85.9125 163.899 107.547 144.49C111.119 141.38 114.283 139.016 114.487 139.265C114.793 139.638 112.038 144.49 108.466 150.213C104.894 155.936 99.4853 165.268 96.4238 170.991C93.4643 176.714 82.953 194.38 73.1562 210.181C48.664 249.371 27.8456 286.944 29.4784 288.935C30.4989 290.304 32.3359 287.442 43.1532 267.536C51.2153 252.606 76.0136 210.927 84.6879 197.864L86.3207 195.376L85.6064 197.864C73.1562 240.165 69.8905 263.057 69.8905 307.224C69.9926 337.954 72.5439 361.095 75.6054 357.363C76.0136 356.99 75.6054 350.893 74.891 343.802C72.6459 323.398 73.1562 280.226 75.9115 258.578C80.6059 220.756 92.3417 183.432 106.833 160.167C116.324 144.988 124.386 134.786 135.407 123.713C158.675 100.572 180.309 87.7575 206.843 81.288C221.64 77.8044 245.316 77.4312 259.399 80.666C320.221 94.3515 370.226 153.946 389.82 236.184C402.27 288.064 403.903 338.576 394.82 388.84C388.901 421.685 376.859 475.556 369.308 503.176C363.593 524.451 353.694 550.578 344.203 569.613C332.671 592.754 324.201 605.196 298.995 635.801C285.422 652.224 272.257 669.269 269.706 673.748C262.358 686.562 256.337 701.99 250.52 723.513C243.989 747.525 236.131 769.547 228.579 784.601C211.537 818.69 192.556 839.467 168.778 850.042C162.144 853.028 159.797 853.402 148.98 853.402C138.571 853.402 135.815 853.028 130.713 850.54C122.345 846.434 113.262 835.237 108.364 823.045C101.322 805.502 99.5873 790.075 99.4853 747.152C99.3832 716.297 98.3627 699.377 95.8114 686.811C94.2807 679.595 92.2397 675.863 90.811 677.729C90.5048 678.102 91.2192 682.706 92.4438 688.18C93.9745 695.645 94.6889 704.602 95.4032 726.002C96.832 771.164 97.2402 796.918 96.5258 796.918C96.1176 796.918 90.5048 793.558 84.0756 789.328C69.7885 779.997 52.746 766.312 38.9692 753.124C26.621 741.305 -5.42293 702.239 -14.8116 687.682C-64.4083 610.421 -93.2886 520.594 -99.5137 423.8C-101.963 384.858 -99.3096 343.553 -91.7579 301.75C-88.2882 282.963 -79.6138 251.113 -73.1846 233.446C-68.3883 220.383 -67.6739 217.148 -69.817 217.148C-70.7354 217.148 -76.6544 232.202 -80.9405 245.763C-117.679 360.224 -109.107 494.218 -57.0606 615.895C-46.3453 641.151 -32.3643 667.029 -16.1383 691.912C-4.70857 709.33 23.4574 743.544 37.5405 757.105C51.7255 770.666 72.9521 787.338 87.1371 795.798L98.2607 802.516L101.016 812.345C109.282 843.075 124.896 858.254 148.47 858.254C172.656 858.378 200.005 839.218 219.293 808.861C230.518 791.07 236.335 778.753 244.806 754.492C248.173 745.037 249.398 742.922 254.398 738.194C268.685 724.509 294.096 692.41 311.241 666.283C332.569 633.686 351.755 588.151 363.287 542.491C365.328 534.28 369.308 518.977 372.063 508.65C380.635 475.929 395.126 409.492 399.413 382.992C402.882 361.593 403.801 349.4 403.801 324.144C403.699 264.301 391.044 209.932 366.654 164.645C355.939 144.739 334.814 118.612 319.405 106.171C290.116 82.5322 263.073 72.9523 229.702 74.4453C212.149 75.1917 202.965 77.1823 186.126 84.0251C171.533 89.8726 160.205 96.7153 147.143 107.539C141.632 112.018 135.713 116.87 133.876 118.115L130.611 120.478L134.183 115.626C136.121 113.014 145.612 100.945 155.205 89.0016C164.9 77.0579 173.064 65.985 173.472 64.3677C174.288 60.8841 172.452 57.8981 169.492 58.0226C168.37 58.0226 164.39 59.3911 160.716 61.0085ZM353.184 565.01C345.121 593.75 327.977 632.816 312.363 658.196C299.403 679.346 273.278 713.436 258.276 728.739C255.011 732.098 252.153 734.586 251.847 734.213C250.929 733.093 257.97 709.952 263.787 695.52C271.747 675.614 276.645 668.149 297.77 643.391C307.669 631.82 319.405 617.264 323.793 611.043C332.671 598.726 347.673 572.475 351.959 562.024C353.49 558.292 354.918 555.554 355.225 555.803C355.429 556.176 354.51 560.282 353.184 565.01Z" fill="#30C0EE" fill-opacity="0.1"/>
<path d="M103.363 70.2153C91.0151 79.2975 82.749 86.3891 67.3394 101.194C55.2974 112.889 29.0703 143.62 29.0703 146.232C29.0703 148.969 31.2134 147.228 36.9282 139.887C53.7666 118.115 82.9531 89.4995 104.486 73.4501C114.997 65.612 117.65 62.8749 114.589 62.8749C113.875 62.8749 108.772 66.234 103.363 70.2153Z" fill="#30C0EE" fill-opacity="0.1"/>
<path d="M219.395 114.755C208.782 116.373 187.555 124.211 184.902 127.445C182.963 129.809 185.208 130.556 188.576 128.938C197.658 124.335 212.353 119.856 221.946 118.612C256.95 114.133 296.035 133.791 322.16 168.751C353.898 211.3 371.553 275.623 367.879 335.217C365.94 365.947 363.185 380.13 350.02 426.786C344.509 446.319 338.896 469.709 334.61 490.61C325.222 537.017 321.854 547.716 310.526 568.867C299.607 589.27 288.687 602.334 266.849 621.245C245.01 640.156 231.335 658.694 221.64 682.83C219.395 688.18 215.211 701.243 212.149 711.943C209.19 722.518 205.006 735.208 203.067 740.06C193.27 763.948 179.493 777.011 164.185 777.011C153.368 777.011 148.164 774.399 140.102 764.57C134.183 757.354 133.06 755.363 131.325 747.65C130.101 742.922 128.978 736.452 128.57 733.093C128.162 728.988 127.447 727.246 126.325 727.246C124.998 727.246 124.794 728.49 125.406 735.581C127.141 755.861 138.571 774.896 151.939 779.748C158.573 782.237 170.513 781.615 177.044 778.38C193.576 770.169 204.496 752.129 214.803 715.426C217.66 705.1 221.844 692.161 223.987 686.562C232.151 665.163 245.928 645.506 264.297 628.959C269.91 623.858 277.972 616.642 282.156 612.909C297.668 598.975 312.363 577.078 321.854 553.688C328.181 538.385 330.63 528.93 337.672 493.347C343.285 465.478 345.836 455.028 357.47 413.722C368.185 375.652 371.349 354.003 371.247 318.545C371.247 290.179 369.41 274.876 363.491 251.362C348.999 194.131 321.548 151.457 285.728 129.934C272.461 122.096 260.317 117.243 248.071 115.253C240.622 114.009 226.13 113.76 219.395 114.755Z" fill="#30C0EE" fill-opacity="0.1"/>
<path d="M200.516 131.925C165.104 140.634 135.305 174.474 125.916 216.526C122.549 231.829 121.936 269.527 124.794 289.931C128.366 315.311 136.019 338.328 150 365.823C164.696 394.936 176.84 411.856 190.31 421.934C201.638 430.394 206.128 435.371 209.088 442.587C212.66 451.296 212.557 456.521 208.782 461.124C206.434 463.986 204.904 464.732 201.536 464.732C199.189 464.732 196.331 464.11 195.107 463.364C193.882 462.493 187.759 455.775 181.432 448.31C168.574 433.131 164.083 430.021 155.409 429.896C148.47 429.896 144.898 431.389 141.02 435.868C136.121 441.467 133.978 447.936 133.468 459.009C132.958 470.207 132.039 473.939 127.855 482.15C124.386 488.744 124.59 490.61 129.692 500.19C133.672 507.904 134.897 514.498 134.182 524.451C133.876 528.184 134.08 536.768 134.591 543.611C136.121 562.273 134.489 573.097 128.059 588.276C121.528 603.703 121.222 609.426 126.427 615.025C132.039 620.996 139.999 621.618 147.143 616.393C148.878 615.025 152.041 610.794 154.184 606.813C168.574 579.94 176.023 574.217 202.965 569.862C224.702 566.254 238.887 558.789 250.112 544.855C262.052 530.174 267.563 509.77 268.583 476.427C269.196 456.397 268.073 445.821 264.093 434.375C260.113 422.68 255.929 415.838 240.826 396.305C233.07 386.352 223.477 373.164 219.395 367.067C198.27 335.093 187.759 323.522 165.716 307.473C147.041 293.912 142.449 286.323 141.53 267.785L141.02 258.205H144.592C149.796 258.205 157.246 261.191 176.227 270.771C186.637 275.996 194.699 279.355 197.046 279.355C207.455 279.355 213.17 269.154 209.292 257.707C204.7 244.271 183.881 227.475 162.655 220.134C157.348 218.268 152.858 216.651 152.654 216.402C152.143 215.78 157.042 207.942 162.246 201.099C170.921 189.529 186.432 178.704 200.516 174.35C217.15 169.249 240.315 170.991 256.643 178.704C280.217 189.777 301.138 214.038 311.751 242.404C319.609 263.43 324.813 293.041 325.936 321.905C326.752 343.304 328.487 344.797 328.895 324.518C329.508 291.175 321.446 252.606 307.771 224.613C302.362 213.54 287.973 195.127 279.197 188.036C261.644 173.852 248.173 168.627 227.457 167.756C211.537 167.01 201.638 168.751 189.392 174.35C173.37 181.69 158.369 196.869 149.082 214.909C136.938 238.796 133.978 270.149 142.142 288.438C145.612 296.4 150.919 301.874 163.981 311.33C169.9 315.56 177.554 321.656 181.024 324.891C188.167 331.485 203.577 348.778 203.577 350.271C203.577 350.894 200.72 350.271 197.25 348.903C193.678 347.659 185.514 345.17 179.085 343.429C164.696 339.447 147.449 332.605 141.53 328.375C135.203 323.896 132.244 315.436 128.57 291.797C125.1 269.278 125.61 235.686 129.692 216.278C131.835 205.951 138.469 189.529 144.49 179.575C159.695 154.568 185.208 137.275 211.639 134.04C215.517 133.542 218.374 132.547 218.681 131.552C219.191 129.561 209.496 129.685 200.516 131.925ZM161.226 223.867C177.86 229.341 196.74 243.151 203.679 254.846C208.475 262.933 207.455 271.642 201.536 274.254C197.046 276.121 193.78 275.001 176.227 266.043C167.553 261.564 156.43 256.712 151.429 255.344C143.469 252.98 142.347 252.233 142.347 249.869C142.347 247.008 146.939 228.097 148.572 224.24C149.796 221.627 154.082 221.503 161.226 223.867ZM147.959 336.088C152.96 338.95 164.696 343.304 179.493 347.783C192.453 351.764 204.291 355.621 205.72 356.243C207.251 356.99 212.557 363.584 217.456 371.049C222.456 378.389 232.151 391.701 238.989 400.535C253.786 419.446 258.889 428.279 262.256 441.467C265.114 452.291 266.542 471.824 265.318 481.653C264.501 487.625 264.501 487.749 263.583 484.017C259.807 469.336 252.357 451.296 246.642 442.96C227.355 414.594 209.496 399.042 181.636 386.6C175.513 383.863 168.267 380.628 165.614 379.509C162.757 378.265 159.899 376.025 158.471 373.537C153.572 365.574 139.285 334.844 139.285 332.231C139.285 331.236 139.591 331.361 147.959 336.088ZM178.268 389.337C194.597 396.927 202.148 401.406 212.557 409.99C224.497 419.819 231.029 427.035 240.621 441.094C249.398 453.908 257.46 472.073 260.215 485.261C264.603 506.411 260.011 526.566 247.153 542.367C235.723 556.177 223.273 562.646 201.23 566.005C193.984 567.125 185.31 569.24 181.84 570.609C174.493 573.595 165.818 580.313 162.144 585.912L159.593 589.768L160.001 571.106C160.307 560.78 161.022 550.454 161.634 547.965C162.246 545.602 165.512 539.505 168.982 534.653C177.554 522.087 179.391 516.613 179.289 503.301C179.187 492.228 176.329 473.69 173.472 465.23C170.513 456.521 165.716 448.683 161.124 444.951C155.817 440.72 148.368 438.979 143.877 441.094L140.918 442.462L142.857 439.725C148.061 432.882 156.123 431.763 164.39 436.739C167.553 438.605 173.268 444.577 179.799 452.789C188.882 464.11 191.025 466.101 195.617 467.843C202.557 470.331 206.945 469.211 211.333 463.861C214.803 459.756 215.415 457.019 214.905 449.181C214.292 440.347 207.455 430.27 196.025 421.312C182.657 410.737 179.799 407.751 172.452 396.802C168.267 390.457 164.798 385.107 164.798 384.61C164.798 383.241 166.226 383.739 178.268 389.337ZM160.001 449.429C168.778 457.143 175.513 480.16 175.513 502.679C175.513 516.862 174.595 519.848 167.043 530.05C164.492 533.409 161.43 539.132 160.103 542.491C157.552 549.21 155.613 565.135 155.613 580.437C155.511 592.257 154.286 599.1 150.919 605.32C145.204 615.771 135.305 618.633 129.182 611.665C127.447 609.675 126.018 606.938 126.018 605.569C126.018 604.201 128.264 597.855 131.019 591.51C138.775 573.221 138.979 571.48 138.162 527.561C137.754 507.531 137.652 507.406 130.509 492.601L128.672 488.62L131.529 483.519C134.999 477.423 137.244 467.843 137.244 459.134C137.244 448.434 140.918 444.577 150.307 445.199C154.286 445.573 156.736 446.568 160.001 449.429Z" fill="#30C0EE" fill-opacity="0.1"/>
<path d="M266.032 141.256C266.236 142.002 270.318 144.739 275.115 147.352C297.566 159.42 317.568 183.183 327.058 209.061C328.691 213.665 330.528 217.024 331.14 216.526C332.875 215.158 332.365 212.794 327.569 201.472C319.507 181.815 306.24 164.521 289.3 151.582C278.38 143.122 264.91 137.275 266.032 141.256Z" fill="#30C0EE" fill-opacity="0.1"/>
<path d="M407.27 173.479C406.964 174.101 409.618 180.57 413.189 187.786C429.926 221.378 437.171 265.172 435.947 325.637C435.437 356.616 432.885 376.896 425.538 409.99C407.883 490.237 377.063 571.106 338.999 637.045C320.221 669.518 293.79 709.828 278.687 728.987C273.686 735.333 272.155 737.945 273.074 738.941C274.4 740.558 282.258 730.605 301.75 702.363C347.775 635.552 381.35 568.991 404.311 498.324C418.802 454.157 431.763 403.396 435.641 376.398L436.967 367.067L437.784 373.039C438.192 376.398 438.294 391.576 437.988 406.631C437.375 439.227 435.334 453.535 427.17 482.274C423.803 494.218 422.374 500.563 423.088 501.434C424.517 503.176 425.333 501.061 429.62 485.882C441.151 445.199 442.988 426.288 441.355 362.09C439.723 295.031 438.6 274.627 435.743 254.472C431.354 224.115 427.272 209.559 416.965 187.786C410.23 173.479 408.495 170.99 407.27 173.479Z" fill="#30C0EE" fill-opacity="0.1"/>
<path d="M456.663 193.385C456.663 194.007 460.031 200.601 464.113 207.942C482.176 240.787 490.442 261.813 497.892 293.912C508.913 340.691 508.199 376.771 495.442 425.542C489.013 449.803 475.236 483.892 451.867 533.16C426.15 587.156 408.801 616.642 368.797 673.997C359.511 687.309 349 702.985 345.428 708.708C341.856 714.431 331.243 728.366 321.854 739.687C297.77 768.676 290.729 780.993 277.666 817.322C270.216 837.85 265.216 847.554 256.746 858.254C243.887 874.677 226.539 884.754 204.087 889.109C193.474 891.224 166.941 891.224 154.593 889.109C112.446 881.893 68.666 857.01 27.1313 816.326C18.457 807.866 15.8037 806.249 15.8037 809.359C15.8037 810.852 29.9888 824.786 41.8267 835.113C70.9111 860.12 101.424 878.285 128.57 886.869C166.941 898.937 205.618 897.693 232.355 883.386C256.133 870.571 267.053 855.89 280.932 817.819C297.872 771.164 309.914 753.746 349 719.159C377.574 693.903 387.881 683.95 401.556 667.9C439.11 624.107 470.542 567.125 486.156 514.747C488.707 506.038 489.013 504.296 487.687 503.674C485.748 502.803 486.156 501.932 482.176 515.742C473.501 546.223 456.357 582.801 434.314 617.762C415.537 647.621 387.779 680.342 361.246 703.732C345.632 717.542 342.06 720.279 343.285 717.79C344.611 714.804 364.103 686.189 377.472 667.403C410.842 620.374 431.661 584.419 458.398 527.561C487.38 465.976 497.994 435.744 505.852 392.572C507.893 381.126 508.199 376.274 508.097 354.004C508.097 330.863 507.791 327.006 505.239 313.196C500.749 288.686 494.116 265.172 486.054 245.515C474.624 218.019 456.663 186.045 456.663 193.385Z" fill="#30C0EE" fill-opacity="0.1"/>
<path d="M337.264 247.132C337.264 247.878 338.692 253.477 340.325 259.698C345.632 278.857 347.877 297.022 347.775 320.412C347.775 331.733 347.265 343.677 346.652 347.161C346.04 351.018 345.938 353.879 346.55 354.626C348.387 356.865 349.51 353.133 350.632 340.318C352.163 323.273 351.245 298.266 348.489 281.968C345.53 263.928 340.631 245.763 338.794 245.763C337.978 245.763 337.264 246.385 337.264 247.132Z" fill="#30C0EE" fill-opacity="0.1"/>
<path d="M77.6464 383.739C77.3403 384.361 78.2587 388.715 79.7895 393.318C82.0346 400.41 82.4428 404.018 82.5449 414.344C82.6469 425.417 82.3408 427.408 80.0956 432.384C78.5649 435.744 76.0136 438.978 73.7685 440.471C70.1967 442.835 69.8906 442.835 66.3188 440.72C62.5429 438.481 58.767 430.892 58.665 425.293C58.665 423.8 58.2568 422.183 57.6445 421.809C55.7055 420.316 56.624 430.518 58.9711 436.117C63.6655 447.563 72.1357 448.932 79.5854 439.352C84.4838 433.131 86.2187 426.91 86.2187 415.464C86.1166 405.884 85.1982 399.664 82.0346 389.586C79.9936 382.868 78.871 381.375 77.6464 383.739Z" fill="#30C0EE" fill-opacity="0.1"/>
<path d="M29.4784 387.844C27.8455 390.954 28.662 432.509 30.4989 442.337C32.1317 451.171 33.4583 454.779 34.683 453.41C34.8871 453.037 34.4789 448.807 33.6624 444.079C31.6214 433.131 30.703 406.631 31.8255 396.802C32.3358 392.696 32.5399 388.591 32.3358 387.844C31.8255 385.853 30.3968 385.978 29.4784 387.844Z" fill="#30C0EE" fill-opacity="0.1"/>
<path d="M264.399 398.668C263.991 399.415 265.828 404.267 268.277 409.617C273.788 421.312 278.584 437.983 280.319 452.291C281.136 458.263 282.156 462.866 282.972 463.239C285.014 463.986 284.401 452.54 281.646 439.103C277.87 420.441 266.644 394.19 264.399 398.668Z" fill="#30C0EE" fill-opacity="0.1"/>
<path d="M516.261 436.988C516.158 464.359 515.852 469.833 513.505 485.883C506.566 533.409 489.421 581.931 464.419 624.605C454.316 641.898 435.13 668.523 418.292 688.678C401.964 708.211 395.739 715.054 362.266 750.263C354.408 758.474 336.651 777.758 322.67 793.186C308.689 808.613 294.402 824.165 290.932 827.897C284.809 834.491 282.87 837.975 285.218 837.975C286.442 837.975 288.993 835.238 322.466 798.162C332.059 787.587 344.713 773.901 350.632 767.681C397.78 718.164 420.231 693.281 433.293 676.112C462.072 638.166 477.277 612.288 491.87 576.083C504.933 543.735 512.485 515.991 516.975 484.017C519.322 467.47 520.751 420.565 519.22 411.981C517.179 400.41 516.363 407.129 516.261 436.988Z" fill="#30C0EE" fill-opacity="0.1"/>
<path d="M281.748 476.676C281.442 477.796 281.136 481.279 281.136 484.39C281.136 492.104 277.87 510.392 274.604 521.465C271.543 531.792 271.543 531.916 273.38 531.916C276.952 531.916 285.218 493.97 285.218 477.671C285.218 474.312 282.769 473.566 281.748 476.676Z" fill="#30C0EE" fill-opacity="0.1"/>
<path d="M417.986 548.961C409.72 569.862 393.085 602.583 377.165 629.581C349.204 677.232 320.323 720.652 300.219 745.784C274.911 777.261 257.766 792.066 237.05 800.526C229.09 803.761 225.62 806.871 229.906 806.871C233.07 806.871 248.173 799.779 255.623 794.803C268.583 786.218 283.483 771.662 298.892 752.751C319.915 726.873 359.613 667.279 383.288 626.222C402.576 592.506 425.231 545.228 423.496 541.869C422.272 539.505 421.353 540.625 417.986 548.961Z" fill="#30C0EE" fill-opacity="0.1"/>
<path d="M1.5166 602.956C1.5166 608.804 16.5181 635.802 31.7236 657.45C41.8267 671.882 50.9092 682.581 62.3389 693.654C70.605 701.617 89.6885 717.293 91.2192 717.293C94.689 717.293 91.9336 713.809 81.9326 705.598C75.6055 700.497 66.7271 692.659 62.2368 688.304C43.6636 670.14 17.5386 632.816 7.63965 610.172C3.14941 600.219 1.5166 598.229 1.5166 602.956Z" fill="#30C0EE" fill-opacity="0.1"/>
<path d="M484.013 626.719C483.298 628.959 480.033 637.792 476.563 646.377C447.887 717.168 402.066 779.998 343.999 828.27C343.183 828.892 343.285 829.639 343.999 830.51C345.326 832.127 363.491 816.7 380.125 799.904C395.433 784.476 422.68 750.511 435.539 730.978C448.295 711.694 465.133 681.337 473.195 663.173C480.747 646.128 488.503 625.351 487.789 623.982C486.564 621.618 485.135 622.738 484.013 626.719Z" fill="#30C0EE" fill-opacity="0.1"/>
<path d="M-68.8984 664.79C-68.8984 671.384 -42.8755 717.293 -25.0166 742.175C-5.5249 769.173 20.0898 798.411 22.1309 795.922C22.9473 794.927 21.9268 793.061 18.2529 789.204C7.84375 778.131 -14.4033 751.009 -23.6899 737.821C-39.3037 715.924 -58.9995 682.208 -64.4082 668.398C-66.3472 663.421 -68.8984 661.306 -68.8984 664.79Z" fill="#30C0EE" fill-opacity="0.1"/>
</svg>
