<svg width="33" height="34" viewBox="0 0 33 34" fill="none" xmlns="http://www.w3.org/2000/svg">
<g id="Vector">
<path d="M33 17C33 7.88736 25.6126 0.5 16.5 0.5C7.38736 0.5 0 7.88723 0 17C0 25.2356 6.03384 32.0618 13.9219 33.2996V21.7695H9.73242V17H13.9219V13.3648C13.9219 9.22953 16.3853 6.94531 20.1541 6.94531C21.9594 6.94531 23.8477 7.26758 23.8477 7.26758V11.3281H21.7671C19.7172 11.3281 19.0781 12.6 19.0781 13.905V17H23.6543L22.9228 21.7695H19.0781V33.2996C26.9662 32.0618 33 25.2357 33 17Z" fill="#1877F2"/>
<path d="M22.9228 21.7695L23.6543 17H19.0781V13.905C19.0781 12.5999 19.7174 11.3281 21.7671 11.3281H23.8477V7.26758C23.8477 7.26758 21.9594 6.94531 20.1541 6.94531C16.3853 6.94531 13.9219 9.22953 13.9219 13.3648V17H9.73242V21.7695H13.9219V33.2996C14.7747 33.4332 15.6367 33.5002 16.5 33.5C17.3633 33.5003 18.2253 33.4332 19.0781 33.2996V21.7695H22.9228Z" fill="white"/>
</g>
</svg>
