<svg width="33" height="34" viewBox="0 0 33 34" fill="none" xmlns="http://www.w3.org/2000/svg">
<g id="Vector">
<path d="M11.3315 0.931963C7.92722 2.12432 4.99135 4.38746 2.95516 7.38895C0.918967 10.3904 -0.110231 13.9721 0.0187382 17.6078C0.147708 21.2435 1.42805 24.7416 3.67169 27.5884C5.91534 30.4351 9.00404 32.4804 12.4841 33.4238C15.3055 34.1588 18.2614 34.1911 21.0979 33.5179C23.6674 32.9351 26.043 31.6887 27.9921 29.9005C30.0206 27.9826 31.493 25.5427 32.251 22.8431C33.0747 19.9074 33.2213 16.8203 32.6796 13.8185H16.8362V20.4539H26.0116C25.8283 21.5122 25.4353 22.5223 24.8563 23.4237C24.2772 24.3251 23.524 25.0993 22.6417 25.6999C21.5215 26.4485 20.2584 26.952 18.9338 27.1781C17.6054 27.4275 16.2428 27.4275 14.9144 27.1781C13.5679 26.8973 12.2941 26.3362 11.1745 25.5306C9.37544 24.2449 8.02463 22.4183 7.31477 20.3115C6.59312 18.1652 6.59312 15.8385 7.31477 13.6922C7.82006 12.1878 8.65537 10.818 9.75836 9.68514C11.0206 8.3649 12.6186 7.42119 14.3771 6.95754C16.1356 6.49389 17.9866 6.52822 19.727 7.05677C21.0867 7.47796 22.33 8.21422 23.3578 9.20677C24.3924 8.1676 25.4252 7.12575 26.4562 6.08121C26.9886 5.51952 27.5688 4.98471 28.0932 4.40958C26.5241 2.93554 24.6825 1.78848 22.6737 1.03409C19.0155 -0.307001 15.0128 -0.343042 11.3315 0.931963Z" fill="white"/>
<path d="M11.3315 0.931963C15.0125 -0.343908 19.0152 -0.308816 22.6737 1.0314C24.6828 1.79092 26.5237 2.9435 28.0906 4.42302C27.5582 4.99815 26.9965 5.53565 26.4535 6.09465C25.4207 7.1356 24.3888 8.17298 23.3578 9.20677C22.33 8.21422 21.0867 7.47796 19.727 7.05677C17.9872 6.52637 16.1362 6.49005 14.3773 6.9518C12.6183 7.41355 11.0193 8.35553 9.75569 9.67439C8.65271 10.8073 7.8174 12.177 7.31211 13.6815L1.79408 9.36802C3.7692 5.41353 7.189 2.38865 11.3315 0.931963Z" fill="#E33629"/>
<path d="M0.330063 13.6411C0.626433 12.157 1.11884 10.7198 1.79408 9.36802L7.31211 13.6922C6.59045 15.8385 6.59045 18.1652 7.31211 20.3115C5.47366 21.7448 3.63431 23.1853 1.79408 24.633C0.104206 21.2369 -0.411177 17.3674 0.330063 13.6411Z" fill="#F8BD00"/>
<path d="M16.8362 13.8158H32.6796C33.2213 16.8176 33.0747 19.9048 32.251 22.8404C31.493 25.54 30.0206 27.9799 27.9921 29.8978C26.2113 28.4949 24.4225 27.1028 22.6417 25.6999C23.5246 25.0987 24.2782 24.3237 24.8572 23.4213C25.4363 22.5189 25.8289 21.5078 26.0116 20.4486H16.8362C16.8336 18.2394 16.8362 16.0276 16.8362 13.8158Z" fill="#587DBD"/>
<path d="M1.79142 24.633C3.63165 23.1997 5.47099 21.7592 7.30945 20.3115C8.02072 22.419 9.37346 24.2457 11.1745 25.5306C12.2976 26.3325 13.5741 26.889 14.9224 27.1646C16.2508 27.4141 17.6133 27.4141 18.9418 27.1646C20.2664 26.9386 21.5294 26.4351 22.6497 25.6865C24.4305 27.0894 26.2193 28.4815 28.0001 29.8844C26.0513 31.6735 23.6757 32.9209 21.1058 33.5044C18.2694 34.1777 15.3134 34.1454 12.4921 33.4104C10.2607 32.8088 8.17635 31.7484 6.36981 30.2956C4.45788 28.7627 2.89618 26.8312 1.79142 24.633Z" fill="#319F43"/>
</g>
</svg>
